<svg width="18" height="18" viewBox="0 0 18 18" fill="none" xmlns="http://www.w3.org/2000/svg">
<path fill-rule="evenodd" clip-rule="evenodd" d="M15.875 17.25C15.875 17.25 17.25 17.25 17.25 15.875C17.25 14.5 15.875 10.375 9 10.375C2.125 10.375 0.75 14.5 0.75 15.875C0.75 17.25 2.125 17.25 2.125 17.25H15.875ZM2.13188 15.952V15.9493V15.952ZM2.15525 15.875H15.8447C15.8512 15.8742 15.8576 15.8733 15.864 15.8723L15.875 15.8695C15.8736 15.5312 15.6632 14.5138 14.731 13.5815C13.8345 12.685 12.1474 11.75 9 11.75C5.85125 11.75 4.1655 12.685 3.269 13.5815C2.33675 14.5138 2.12775 15.5312 2.125 15.8695C2.13506 15.8714 2.14515 15.8733 2.15525 15.875ZM15.8695 15.952V15.9493V15.952ZM9 7.625C9.72935 7.625 10.4288 7.33527 10.9445 6.81954C11.4603 6.30382 11.75 5.60435 11.75 4.875C11.75 4.14565 11.4603 3.44618 10.9445 2.93046C10.4288 2.41473 9.72935 2.125 9 2.125C8.27065 2.125 7.57118 2.41473 7.05546 2.93046C6.53973 3.44618 6.25 4.14565 6.25 4.875C6.25 5.60435 6.53973 6.30382 7.05546 6.81954C7.57118 7.33527 8.27065 7.625 9 7.625ZM13.125 4.875C13.125 5.96902 12.6904 7.01823 11.9168 7.79182C11.1432 8.5654 10.094 9 9 9C7.90598 9 6.85677 8.5654 6.08318 7.79182C5.3096 7.01823 4.875 5.96902 4.875 4.875C4.875 3.78098 5.3096 2.73177 6.08318 1.95818C6.85677 1.1846 7.90598 0.75 9 0.75C10.094 0.75 11.1432 1.1846 11.9168 1.95818C12.6904 2.73177 13.125 3.78098 13.125 4.875Z" fill="#FF9957"/>
</svg>
