<svg width="22" height="24" viewBox="0 0 22 24" fill="none" xmlns="http://www.w3.org/2000/svg">
<path d="M11.9387 11.4694L15.8813 7.52671L3.14667 0.36938C2.30267 -0.0866203 1.512 -0.15062 0.818666 0.348047L11.9387 11.4694ZM16.5533 16.0854L20.652 13.78C21.452 13.332 21.8907 12.6974 21.8907 11.9934C21.8907 11.2907 21.452 10.6547 20.6533 10.2067L16.9427 8.12271L12.7653 12.2987L16.5533 16.0854ZM0.133333 1.31738C0.0479999 1.58005 0 1.87338 0 2.19471V21.8014C0 22.3094 0.112 22.7467 0.314667 23.0947L11.1107 12.2974L0.133333 1.31738ZM11.9387 13.124L1.20267 23.8614C1.408 23.94 1.62933 23.9814 1.86267 23.9814C2.27867 23.9814 2.712 23.8587 3.15333 23.6134L15.4933 16.684L11.9387 13.124Z" fill="white"/>
</svg>
