<svg width="50" height="31" viewBox="0 0 50 31" fill="none" xmlns="http://www.w3.org/2000/svg">
<path d="M29.8976 -3.05176e-05C29.2616 0.00279866 28.6267 0.0754153 28.0069 0.220574C24.8179 0.965626 22.3772 3.48737 21.6802 6.63446C19.7539 6.02177 17.7381 5.70592 15.7017 5.70571H15.6975C15.6901 5.70564 15.6831 5.70564 15.6766 5.70571C15.6508 5.70571 15.6253 5.70777 15.5998 5.7106C14.4101 5.71474 13.2239 5.82593 12.0556 6.04406C11.9434 5.22495 11.8856 4.3929 11.8859 3.55238V2.67464H11.7852V2.65763H3.99813V2.67357H3.93888C3.46038 2.67357 3.075 3.06063 3.075 3.54133C3.075 4.02202 3.46038 4.40908 3.93888 4.40908H3.99813V4.41179H10.1579C10.2055 5.53114 10.3467 6.63441 10.5749 7.71216H7.8745C7.39596 7.71216 7.01062 8.09922 7.01062 8.57992C7.01062 9.06061 7.39596 9.44764 7.8745 9.44764H11.0243C11.3469 10.4976 11.7544 11.5164 12.2413 12.494H6.14546C5.66683 12.494 5.28179 12.8811 5.28179 13.3618C5.28179 13.8425 5.66683 14.2295 6.14546 14.2295H12.7127C12.8702 14.2295 13.0169 14.187 13.1437 14.1137C13.8358 15.2311 14.6384 16.2806 15.5411 17.2453H13.6261C13.1476 17.2453 12.7624 17.6322 12.7624 18.1128C12.7624 18.5935 13.1476 18.9806 13.6261 18.9806H16.7859C16.9502 18.9806 17.1031 18.9342 17.2336 18.8548C18.12 19.6033 19.078 20.2794 20.1014 20.8721C26.2659 24.4427 33.8641 24.4393 40.0257 20.8634C45.8806 17.4658 49.5972 11.3299 49.9461 4.59841C49.9637 4.5294 49.9741 4.45744 49.9741 4.38291V3.53535V2.71775V2.65612H49.9694C49.9383 2.19894 49.562 1.84001 49.0985 1.84001C48.6338 1.84001 48.2571 2.2009 48.2275 2.65994V2.69607C48.2275 2.70337 48.2275 2.71039 48.2275 2.71775V3.67137C48.2217 4.47277 48.1656 5.26636 48.0584 6.04807C46.8195 5.80744 45.5601 5.68601 44.2969 5.68528L44.3009 5.68799L44.3054 5.70691C44.2718 5.70691 44.2389 5.70802 44.2057 5.71161C42.7288 5.7164 41.2568 5.88706 39.8182 6.2221C39.2622 6.35192 38.7138 6.50627 38.1742 6.68265C38.1673 6.65053 38.1614 6.61821 38.1541 6.58616L38.1501 6.54918V6.54623C37.2561 2.71052 33.8333 -0.00599223 29.9094 0.00376842C29.9094 0.00375754 29.9054 0.00375754 29.9054 0.00376842L29.8976 -3.05176e-05ZM29.902 1.74313H29.9062C33.0332 1.73834 35.7422 3.88502 36.4545 6.93986L36.4593 6.97727C36.479 7.07824 36.4859 7.18096 36.5069 7.28246C34.0235 8.32733 31.7896 9.86782 29.9215 11.8123C28.6317 10.4699 27.1671 9.32037 25.5669 8.39313C25.5059 8.32784 25.4351 8.27228 25.3572 8.22863C24.7051 7.86292 24.0347 7.53581 23.3495 7.24782C23.8326 4.63973 25.786 2.53215 28.4013 1.92144C28.8926 1.80656 29.3959 1.74834 29.9007 1.7461L29.902 1.74313ZM30.4451 2.7758C30.0705 2.77264 29.8193 2.81745 29.8193 2.81745C29.7667 2.82667 29.7164 2.84621 29.6714 2.87494C29.6263 2.90368 29.5873 2.94105 29.5566 2.98493C29.526 3.0288 29.5043 3.07831 29.4926 3.13064C29.481 3.18297 29.4798 3.2371 29.489 3.2899C29.5075 3.3964 29.5674 3.49113 29.6554 3.55333C29.7434 3.61554 29.8524 3.64011 29.9585 3.62166C29.9585 3.62166 30.4654 3.53512 31.0676 3.6546C31.6698 3.77408 32.3108 4.06574 32.6796 4.87558C32.7244 4.97398 32.8063 5.05048 32.9072 5.08826C33.0082 5.12605 33.1199 5.12202 33.2179 5.07705C33.3158 5.0321 33.392 4.94993 33.4297 4.84859C33.4673 4.74724 33.4634 4.63502 33.4187 4.53659C32.9268 3.45677 31.9875 3.00508 31.225 2.8538C30.939 2.79707 30.6699 2.77773 30.4451 2.7758ZM33.7676 5.53866C33.6353 5.53965 33.5087 5.59312 33.4155 5.68743C33.3223 5.78174 33.27 5.90925 33.2699 6.04214C33.2699 6.1757 33.3227 6.3038 33.4167 6.39826C33.5107 6.49272 33.6382 6.5458 33.7712 6.54584C33.837 6.54584 33.9022 6.53281 33.9631 6.5075C34.0239 6.48219 34.0792 6.44509 34.1258 6.39831C34.1724 6.35154 34.2093 6.29602 34.2345 6.23491C34.2597 6.17379 34.2726 6.10829 34.2726 6.04214C34.2726 5.90859 34.2197 5.78053 34.1257 5.68611C34.0317 5.59169 33.9041 5.53865 33.7712 5.53866C33.77 5.53866 33.7688 5.53866 33.7676 5.53866ZM15.6996 7.44866C18.5601 7.44866 21.3644 8.15918 23.9056 9.46257C23.3651 12.0018 21.4712 14.0459 18.9129 14.6364C17.8166 14.89 16.6801 14.8329 15.5995 14.5278C14.0726 12.5276 12.9758 10.2341 12.3835 7.78487C13.4781 7.5796 14.5851 7.44844 15.6996 7.44844V7.44866ZM44.3018 7.44866C45.404 7.44866 46.4987 7.57956 47.5815 7.78062C46.0531 14.0945 41.2911 19.0777 35.0764 20.8804C34.8837 20.085 34.6413 19.3055 34.3522 18.5458C34.3957 18.3823 34.4985 18.0665 34.739 17.5261C34.9172 17.1237 35.1742 16.6056 35.5172 16.0274C35.5581 15.9997 35.6589 15.9396 35.8857 15.8405C36.2071 15.7002 36.7809 15.4879 37.5128 15.3398C38.1515 15.2107 38.8429 15.1446 39.5319 15.1915C40.409 15.2512 41.0955 15.4819 41.5891 15.7523C41.0957 15.4717 40.4511 15.1809 39.5543 15.0138C38.8542 14.8834 38.1423 14.8555 37.458 14.8895C36.9667 14.9139 36.5194 14.9694 36.1656 15.0234C36.2136 14.9552 36.2625 14.8867 36.3127 14.8179C37.0963 13.7425 38.0725 12.7007 39.2492 11.8473C40.727 10.7757 42.1988 10.2367 43.4449 10.0045C42.191 10.2209 40.7051 10.6478 39.0971 11.6155C37.8198 12.384 36.7154 13.3448 35.7725 14.3703C35.6289 14.5265 35.4933 14.6811 35.3616 14.8344C35.3326 14.6058 35.2951 14.3536 35.2442 14.0921C35.1363 13.5377 34.9802 12.9932 34.7544 12.5117C34.6269 12.2399 34.4875 12.0105 34.3401 11.8163C34.1709 11.5934 34.0061 11.437 33.8596 11.3175C34.0027 11.4401 34.1553 11.6118 34.2967 11.8459C34.4205 12.0505 34.5281 12.2901 34.6162 12.5663C34.7716 13.0536 34.8482 13.5989 34.8706 14.1369C34.8927 14.6667 34.8604 15.1349 34.823 15.4501C34.8188 15.4693 34.8188 15.4798 34.8163 15.4977C34.3717 16.0647 34.017 16.5796 33.7538 16.9822C33.7366 17.0088 33.7271 17.0241 33.7106 17.0496C33.042 15.6528 32.2103 14.3356 31.2351 13.1217C33.6633 10.5559 36.7634 8.72453 40.2079 7.92004C41.55 7.6063 42.9236 7.44887 44.3017 7.44887L44.3018 7.44866ZM0.863552 7.71134C0.385006 7.71134 -0.00012207 8.09818 -0.00012207 8.57888C-0.00012207 9.05959 0.385006 9.44663 0.863552 9.44663H4.79473C5.27327 9.44663 5.65883 9.05959 5.65883 8.57888C5.65883 8.09818 5.27327 7.71134 4.79473 7.71134H0.863552ZM17.2135 9.42474C16.5252 9.42469 15.9674 9.98522 15.9675 10.6765C15.9675 11.3678 16.5253 11.9282 17.2135 11.9281C17.9016 11.9281 18.4595 11.3678 18.4595 10.6765C18.4595 9.98522 17.9017 9.42471 17.2135 9.42474ZM43.7502 9.95266C43.7359 9.95473 43.721 9.9568 43.707 9.95941C43.721 9.95734 43.7362 9.95495 43.7502 9.95245V9.95266ZM25.5388 10.3777C26.9192 11.2783 28.1758 12.3672 29.2698 13.6181C29.3696 13.7321 29.4973 13.818 29.6403 13.8672C31.4686 16.0373 32.761 18.6103 33.4166 21.3775C29.2581 21.9952 24.2822 21.2137 20.9752 19.3509C19.6214 18.5668 18.3934 17.6224 17.3083 16.55C17.9772 16.5586 18.6477 16.4875 19.3054 16.3357C22.3404 15.6355 24.7114 13.3226 25.5388 10.3777ZM1.07154 12.5402C0.592991 12.5402 0.207651 12.9272 0.207651 13.4079C0.207651 13.8886 0.592991 14.2757 1.07154 14.2757H2.60529C3.08383 14.2757 3.46917 13.8886 3.46917 13.4079C3.46917 12.9272 3.08383 12.5402 2.60529 12.5402H1.07154ZM26.2029 13.5877L26.1913 13.5888C26.0754 13.5925 25.9825 13.6862 25.9795 13.8026L25.9425 15.3422L23.9286 15.6191L23.9172 15.6221C23.9106 15.6231 23.9045 15.6254 23.8971 15.6269C23.8844 15.6324 23.8722 15.6393 23.8603 15.6471C23.8562 15.6483 23.8529 15.6504 23.8489 15.6518C23.8443 15.653 23.8415 15.655 23.8379 15.6565C23.8338 15.6577 23.8337 15.6599 23.8332 15.6614C23.8263 15.6676 23.8195 15.6745 23.8133 15.6816C23.8064 15.6879 23.7994 15.6944 23.7937 15.7015C23.7891 15.7027 23.789 15.7048 23.7886 15.7062C23.7845 15.7074 23.7846 15.7096 23.7837 15.7111C23.7837 15.7122 23.7797 15.7124 23.7797 15.7141C23.7723 15.7223 23.7657 15.731 23.7596 15.7404C23.755 15.7525 23.7515 15.7652 23.7486 15.7778C23.744 15.7845 23.7439 15.7912 23.7439 15.7978C23.7438 15.8019 23.7438 15.8052 23.7439 15.8088V15.8288V15.8322L23.7067 17.3722L21.6933 17.6491C21.5734 17.6655 21.4896 17.7766 21.5063 17.8969C21.5222 18.0173 21.6332 18.1013 21.753 18.0846L23.9509 17.7821C24.0569 17.7673 24.1366 17.6773 24.1392 17.5698L24.176 16.0299L26.1898 15.7527C26.2959 15.7378 26.3758 15.648 26.3783 15.5404L26.4257 13.8145C26.4298 13.6931 26.3337 13.592 26.2129 13.589C26.2088 13.5889 26.2054 13.5889 26.2017 13.589L26.2029 13.5877ZM28.8987 15.2899L28.8898 15.291C28.7738 15.2942 28.6809 15.388 28.6778 15.5046L28.6406 17.0439L26.6263 17.321C26.6217 17.3221 26.6189 17.3221 26.6153 17.3242C26.6088 17.3253 26.6018 17.3276 26.5956 17.3291C26.5829 17.3346 26.5698 17.3411 26.5584 17.3491C26.5543 17.3503 26.5508 17.3526 26.5472 17.354C26.5431 17.3552 26.5398 17.3571 26.5357 17.3587C26.5312 17.3599 26.5313 17.3619 26.5313 17.3633C26.5244 17.3695 26.5174 17.3764 26.5116 17.3835C26.5043 17.3898 26.4977 17.3965 26.4915 17.4037C26.4874 17.4049 26.4875 17.4071 26.4875 17.4086C26.483 17.4098 26.4831 17.4119 26.4826 17.4133C26.4826 17.4144 26.4784 17.4144 26.4784 17.416C26.471 17.4243 26.4647 17.4332 26.4585 17.4426C26.454 17.4546 26.4502 17.4671 26.4473 17.4798C26.4432 17.4864 26.4433 17.4934 26.4429 17.5002C26.4429 17.5039 26.4385 17.5075 26.4385 17.5112V17.5312V17.5346L26.4017 19.0746L24.388 19.3517C24.2682 19.3681 24.1846 19.4792 24.2012 19.5995C24.218 19.7198 24.3282 19.8037 24.4479 19.7869L26.6458 19.4847C26.7519 19.4698 26.8319 19.3798 26.8343 19.2722L26.8712 17.7322L28.8848 17.4551C28.9908 17.4402 29.0709 17.3503 29.0735 17.2428L29.1211 15.5168C29.1252 15.3955 29.029 15.2945 28.9083 15.2913C28.9037 15.2913 28.9007 15.2913 28.897 15.2913L28.8987 15.2899ZM9.43555 17.2443C8.95704 17.2443 8.57166 17.6311 8.57166 18.1118C8.57166 18.5925 8.95704 18.9796 9.43555 18.9796H10.3291C10.8076 18.9796 11.1927 18.5925 11.1927 18.1118C11.1927 17.6311 10.8076 17.2443 10.3291 17.2443H9.43555ZM22.7719 26.2491C21.4113 26.2491 20.3083 27.3126 20.3083 28.6245C20.3083 29.9365 21.4113 31 22.7719 31C24.1325 30.9999 25.2355 29.9364 25.2356 28.6245C25.2355 27.3126 24.1325 26.2492 22.7719 26.2491ZM38.1306 26.2491C36.7699 26.2491 35.6668 27.3126 35.6667 28.6245C35.6668 29.9365 36.7699 31 38.1306 31C39.4912 30.9999 40.594 29.9364 40.594 28.6245C40.594 27.3126 39.4912 26.2492 38.1306 26.2491Z" fill="#f57622"/>
</svg>
